<!DOCTYPE svg PUBLIC "-//W3C//DTD SVG 20010904//EN" "http://www.w3.org/TR/2001/REC-SVG-20010904/DTD/svg10.dtd">
<svg version="1.0" xmlns="http://www.w3.org/2000/svg" width="974px" height="974px" viewBox="0 0 9740 9740" preserveAspectRatio="xMidYMid meet">
<g id="layer101" fill="#0d0d0d" stroke="none">
 <path d="M0 4870 l0 -4870 4870 0 4870 0 0 4870 0 4870 -4870 0 -4870 0 0 -4870z"/>
 </g>
<g id="layer102" fill="#ffffff" stroke="none">
 <path d="M0 4870 l0 -4870 4870 0 4870 0 0 4870 0 4870 -4870 0 -4870 0 0 -4870z m5000 1441 l0 -1009 706 -1214 c388 -667 712 -1223 720 -1235 l14 -23 -329 0 -330 0 -24 43 c-14 23 -183 330 -377 682 -639 1163 -685 1244 -691 1237 -4 -4 -250 -448 -548 -987 l-541 -980 -324 3 -325 3 68 117 c37 64 242 419 456 787 214 369 507 875 652 1125 l263 454 0 1003 0 1003 305 0 305 0 0 -1009z"/>
 </g>

</svg>