<!DOCTYPE svg PUBLIC "-//W3C//DTD SVG 20010904//EN" "http://www.w3.org/TR/2001/REC-SVG-20010904/DTD/svg10.dtd">
<svg class="logo" version="1.0" xmlns="http://www.w3.org/2000/svg"  viewBox="100 100 15700 5470" preserveAspectRatio="xMidYMid meet">
<g id="layer101" fill="#000000" stroke="none">
 <path d="M0 2835 l0 -2835 8000 0 8000 0 0 2835 0 2835 -8000 0 -8000 0 0 -2835z"/>
 </g>
<g id="layer102" fill="#303030" stroke="none">
 <path d="M0 2835 l0 -2835 8000 0 8000 0 0 2835 0 2835 -8000 0 -8000 0 0 -2835z m6435 2434 c5 -6 26 -8 60 -4 35 5 55 3 60 -5 4 -7 18 -9 36 -5 18 4 36 2 44 -5 8 -6 23 -9 34 -5 10 3 22 1 26 -5 4 -7 18 -9 30 -6 13 3 27 1 30 -4 4 -6 14 -10 23 -9 10 1 24 -1 32 -4 8 -3 44 -13 80 -22 63 -15 265 -78 305 -95 178 -73 381 -199 370 -228 -3 -10 -31 -81 -61 -159 -30 -78 -54 -148 -54 -157 0 -8 -4 -17 -9 -20 -4 -3 -11 -18 -14 -33 -11 -50 -21 -57 -51 -37 -41 26 -75 45 -172 93 -83 41 -104 51 -176 80 -16 6 -38 15 -50 21 -49 21 -142 50 -164 50 -13 0 -26 5 -29 11 -4 6 -13 8 -21 5 -7 -3 -16 -1 -20 5 -3 6 -12 8 -20 5 -7 -3 -16 -1 -20 5 -3 5 -14 7 -24 4 -10 -3 -21 -1 -25 5 -4 6 -15 8 -25 5 -10 -3 -21 -1 -25 5 -3 5 -17 7 -30 4 -12 -3 -26 -1 -30 5 -3 6 -17 8 -31 5 -13 -3 -32 -3 -41 1 -15 7 -78 11 -178 14 -57 2 -193 -7 -203 -13 -6 -4 -22 -4 -35 0 -14 3 -28 1 -32 -6 -4 -6 -15 -8 -25 -5 -10 3 -21 1 -24 -4 -4 -6 -13 -8 -20 -5 -8 3 -17 0 -21 -5 -3 -6 -10 -9 -15 -6 -4 3 -21 -2 -36 -10 -16 -8 -38 -15 -49 -15 -28 0 -136 -54 -220 -109 -80 -52 -249 -215 -291 -280 -16 -24 -37 -56 -46 -70 -18 -29 -94 -180 -126 -251 -49 -109 -128 -420 -136 -535 -2 -30 -6 -57 -9 -62 -3 -4 -11 -73 -18 -153 -24 -263 -12 -1017 17 -1100 3 -8 8 -38 10 -66 8 -109 92 -452 128 -524 7 -14 21 -43 30 -65 10 -22 24 -51 32 -65 7 -14 22 -41 32 -60 93 -183 283 -371 462 -456 19 -9 46 -22 60 -29 43 -22 193 -66 206 -61 8 3 16 0 20 -5 3 -6 17 -8 29 -5 13 3 27 1 31 -5 4 -6 20 -8 40 -4 19 3 40 2 47 -2 17 -11 306 -12 313 -1 3 5 25 6 49 3 28 -5 45 -3 50 5 4 7 18 9 35 5 16 -3 31 -2 35 4 3 6 17 8 30 5 12 -3 26 -1 30 6 4 6 15 8 25 5 10 -3 21 -1 25 5 4 6 15 8 25 5 10 -3 21 -1 24 4 4 6 13 8 20 5 8 -3 17 0 21 5 3 6 10 9 15 6 5 -3 21 0 37 6 15 7 38 13 50 15 12 1 37 9 55 17 18 8 55 22 81 32 27 10 97 42 155 72 l107 54 17 -21 c10 -12 18 -29 18 -36 0 -8 4 -22 10 -32 12 -22 28 -61 85 -207 26 -66 49 -123 51 -127 5 -8 -111 -88 -127 -88 -5 0 -31 -11 -58 -25 -27 -13 -102 -42 -167 -65 -66 -22 -126 -43 -134 -47 -8 -3 -20 -5 -27 -4 -6 1 -14 -3 -18 -8 -3 -6 -12 -8 -19 -5 -8 3 -17 0 -21 -5 -3 -6 -11 -9 -16 -5 -5 3 -16 1 -23 -5 -7 -6 -20 -9 -29 -5 -8 3 -18 1 -21 -5 -4 -6 -13 -8 -21 -4 -9 3 -22 0 -30 -7 -8 -6 -19 -9 -25 -5 -6 4 -17 1 -25 -5 -8 -6 -23 -9 -34 -5 -10 3 -22 1 -26 -5 -4 -7 -18 -9 -32 -5 -14 3 -31 1 -37 -4 -7 -6 -30 -11 -52 -11 -21 0 -144 -1 -272 -3 -128 -1 -236 1 -238 5 -3 5 -21 6 -40 2 -20 -4 -40 -2 -48 5 -7 6 -21 9 -30 5 -9 -3 -23 -1 -31 6 -8 7 -22 9 -31 6 -9 -4 -23 -1 -30 5 -8 6 -20 9 -29 6 -8 -4 -17 -2 -21 4 -3 6 -12 8 -20 5 -7 -3 -16 -1 -19 5 -4 5 -12 9 -18 8 -7 -1 -25 3 -40 9 -16 7 -32 10 -37 7 -5 -3 -11 -1 -14 4 -3 5 -18 12 -33 16 -60 14 -282 120 -348 165 -24 17 -48 30 -54 30 -6 0 -11 4 -11 8 0 5 -21 24 -47 42 -50 36 -179 164 -223 220 -14 18 -33 41 -42 51 -10 11 -18 21 -18 23 0 2 -27 46 -60 97 -33 52 -71 118 -84 147 -14 29 -35 65 -46 79 -11 14 -20 33 -20 42 0 16 -51 148 -70 183 -5 10 -19 50 -30 90 -12 40 -26 89 -31 108 -36 121 -85 385 -104 555 -4 33 -9 76 -11 95 -9 70 -12 777 -4 835 4 33 11 94 15 135 3 41 8 86 10 100 2 14 6 41 9 60 2 19 10 69 16 110 9 67 29 152 62 275 57 208 171 473 277 644 28 45 51 86 51 91 0 4 7 10 15 14 8 3 15 12 15 20 0 9 9 20 20 26 11 6 20 16 20 22 0 6 48 58 108 115 125 121 133 127 155 136 9 3 17 11 17 17 0 5 5 10 11 10 5 0 38 19 72 42 109 74 319 161 477 198 30 7 60 17 66 21 6 5 19 7 28 3 9 -3 22 -1 30 5 7 6 21 9 30 5 9 -3 23 -1 31 6 8 6 23 9 35 5 12 -4 27 -1 35 5 10 8 30 10 59 6 27 -4 47 -3 51 4 9 14 311 14 320 -1z m7900 0 c5 -7 25 -8 56 -4 33 5 54 3 64 -5 9 -7 26 -10 41 -6 15 4 32 2 40 -5 7 -6 21 -8 30 -5 9 4 23 1 30 -5 8 -6 20 -9 29 -6 8 4 17 2 21 -4 3 -5 13 -9 22 -8 10 1 24 -1 32 -4 8 -3 44 -13 80 -22 119 -30 291 -98 375 -148 74 -44 200 -141 258 -198 37 -37 67 -69 67 -72 0 -3 16 -29 36 -58 49 -73 127 -234 127 -265 0 -13 4 -27 9 -30 5 -3 6 -14 3 -25 -4 -10 -3 -24 2 -31 18 -29 29 -274 13 -293 -6 -8 -9 -23 -5 -35 4 -12 1 -27 -5 -35 -6 -8 -9 -19 -5 -25 4 -6 2 -17 -4 -24 -7 -8 -11 -18 -10 -22 1 -5 -3 -22 -10 -39 -6 -16 -21 -54 -33 -83 -11 -29 -38 -80 -59 -113 -22 -33 -39 -64 -39 -68 0 -5 -6 -11 -14 -14 -8 -3 -20 -18 -28 -34 -7 -15 -26 -34 -41 -41 -15 -7 -35 -24 -43 -38 -9 -13 -23 -24 -30 -24 -8 0 -17 -7 -20 -15 -4 -8 -13 -15 -20 -15 -8 0 -17 -6 -20 -14 -3 -8 -18 -19 -32 -25 -15 -6 -45 -22 -67 -36 -52 -31 -107 -58 -175 -85 -55 -22 -90 -37 -153 -65 -19 -8 -60 -22 -93 -31 -99 -27 -117 -32 -169 -47 -27 -8 -104 -29 -170 -46 -563 -150 -724 -230 -803 -399 -24 -51 -27 -69 -27 -162 0 -93 3 -111 28 -164 38 -82 141 -181 237 -228 131 -64 250 -105 269 -94 5 4 12 2 15 -3 8 -12 171 -34 201 -27 13 3 27 2 30 -4 8 -13 272 -13 280 -1 3 5 20 7 38 4 39 -6 256 24 273 38 6 5 14 6 17 3 3 -4 14 -3 24 1 10 5 25 7 35 6 9 -1 19 3 22 8 4 6 13 8 20 5 8 -3 17 -1 20 5 4 6 13 8 20 5 8 -3 17 -1 20 5 4 6 13 8 20 5 8 -3 17 0 21 5 3 6 10 9 15 6 5 -3 21 0 37 7 15 6 31 11 35 10 4 -1 24 5 45 12 l39 14 17 -62 c10 -33 21 -74 27 -91 5 -16 21 -82 35 -145 14 -63 28 -123 31 -132 4 -12 1 -16 -9 -13 -7 3 -27 0 -43 -6 -16 -7 -34 -11 -41 -10 -6 1 -14 -3 -18 -8 -3 -6 -12 -8 -19 -5 -8 3 -17 1 -20 -5 -4 -6 -13 -8 -20 -5 -8 3 -17 1 -20 -5 -4 -6 -13 -8 -21 -4 -9 3 -21 0 -29 -6 -7 -6 -16 -8 -19 -4 -4 3 -13 0 -21 -6 -8 -7 -20 -10 -26 -6 -6 4 -17 1 -25 -5 -8 -6 -19 -9 -25 -5 -6 4 -17 1 -25 -5 -8 -6 -23 -9 -34 -5 -10 3 -22 1 -26 -5 -4 -7 -18 -9 -32 -5 -14 3 -31 1 -39 -6 -7 -6 -21 -8 -30 -5 -9 4 -23 1 -30 -5 -8 -7 -28 -9 -48 -5 -19 4 -37 2 -40 -3 -7 -10 -71 -13 -286 -13 -208 0 -280 3 -286 13 -3 5 -21 7 -40 3 -20 -4 -40 -2 -48 5 -7 6 -21 9 -30 5 -9 -3 -23 -1 -31 6 -8 6 -19 9 -25 5 -6 -4 -17 -1 -25 5 -8 6 -19 9 -25 5 -6 -4 -18 -1 -26 6 -8 6 -17 9 -21 6 -3 -4 -12 -2 -19 3 -6 6 -16 10 -20 9 -5 -1 -16 1 -24 4 -8 3 -51 18 -95 32 -108 36 -248 103 -336 161 -40 27 -81 54 -92 60 -31 19 -117 107 -117 121 0 6 -8 18 -18 25 -10 7 -21 20 -25 28 -4 8 -16 29 -27 45 -78 120 -119 284 -115 454 4 194 42 322 133 448 12 17 22 34 22 37 0 6 150 156 157 156 2 0 30 18 63 40 88 60 222 123 350 165 63 21 120 42 126 46 6 5 34 13 63 19 29 5 67 16 84 25 18 8 58 21 90 29 33 9 73 20 90 25 123 39 206 66 234 78 17 7 36 13 43 13 7 0 28 7 48 16 45 19 80 34 107 44 64 24 258 126 286 150 91 78 155 172 164 239 2 14 5 26 6 26 4 0 5 191 0 200 -2 5 -6 19 -7 32 -2 13 -12 35 -23 49 -12 15 -21 35 -21 44 0 17 -131 160 -146 160 -4 0 -12 6 -18 14 -15 19 -205 116 -236 121 -14 2 -40 11 -57 20 -18 9 -37 14 -42 11 -5 -4 -13 -2 -16 4 -4 6 -15 8 -25 5 -10 -3 -21 -1 -25 5 -4 6 -15 8 -25 5 -10 -3 -21 -1 -25 5 -4 7 -19 9 -35 5 -16 -4 -31 -2 -35 5 -4 7 -22 9 -50 5 -23 -4 -45 -3 -48 2 -7 11 -288 10 -305 -1 -7 -4 -33 -5 -57 -2 -28 5 -46 3 -50 -4 -5 -7 -20 -9 -40 -6 -19 4 -36 2 -40 -4 -3 -5 -17 -7 -30 -4 -12 3 -26 1 -30 -6 -4 -6 -15 -8 -25 -5 -10 3 -21 1 -25 -5 -4 -6 -15 -8 -25 -5 -10 3 -21 1 -24 -4 -4 -6 -13 -8 -20 -5 -8 3 -17 0 -21 -5 -3 -6 -11 -9 -16 -5 -5 3 -16 1 -23 -5 -7 -6 -28 -13 -47 -15 -43 -6 -204 -62 -244 -86 -37 -22 -89 -35 -80 -20 3 5 3 16 -1 22 -5 7 -9 19 -11 28 -9 56 -25 130 -48 230 -15 63 -29 127 -32 141 -5 25 -1 27 139 72 78 25 163 51 188 57 25 6 52 14 60 17 8 3 25 5 37 4 11 -1 24 2 27 8 4 6 13 8 21 4 9 -3 21 0 29 6 7 6 21 9 30 5 9 -3 23 -1 30 5 8 7 25 9 40 5 15 -3 32 -1 41 6 9 7 26 9 45 5 19 -4 36 -2 45 5 10 8 33 10 74 5 38 -4 61 -3 65 4 10 15 342 15 351 0z m-12175 -1113 c0 -1007 0 -1024 20 -1049 11 -14 29 -45 40 -68 12 -24 36 -71 55 -104 18 -33 43 -78 54 -100 12 -22 34 -62 50 -90 16 -27 39 -68 50 -90 12 -22 35 -62 51 -90 17 -27 41 -74 55 -104 25 -54 181 -341 222 -409 12 -21 32 -55 43 -77 12 -22 37 -67 55 -100 19 -33 46 -82 60 -110 15 -27 39 -72 55 -100 16 -27 40 -72 54 -100 14 -27 46 -88 72 -135 119 -221 226 -416 234 -430 5 -8 31 -55 57 -104 26 -48 58 -104 70 -125 12 -20 31 -54 43 -76 11 -22 36 -67 55 -100 19 -33 48 -86 64 -117 l30 -58 -314 0 -314 0 -59 123 c-32 67 -66 128 -75 136 -9 7 -17 20 -17 28 0 13 -31 76 -101 202 -21 36 -51 93 -68 126 -18 33 -44 83 -60 110 -15 28 -47 86 -71 130 -23 44 -57 107 -75 140 -18 33 -80 154 -139 270 -59 115 -116 218 -126 227 -11 10 -24 35 -30 57 -5 21 -21 55 -35 76 -14 20 -39 65 -56 98 -38 78 -90 174 -134 252 -20 33 -45 81 -57 108 -12 26 -26 47 -30 47 -5 0 -18 -19 -29 -42 -11 -24 -37 -74 -59 -113 -22 -38 -54 -97 -71 -130 -17 -33 -51 -96 -74 -140 -24 -44 -62 -116 -85 -160 -22 -44 -52 -98 -65 -120 -14 -22 -25 -48 -25 -57 0 -10 -9 -25 -19 -35 -11 -10 -72 -122 -137 -248 -65 -127 -132 -257 -150 -290 -18 -33 -45 -82 -59 -110 -15 -27 -46 -86 -70 -130 -24 -44 -57 -107 -73 -140 -16 -33 -41 -77 -56 -99 -14 -21 -31 -56 -36 -77 -6 -22 -19 -47 -29 -56 -10 -10 -37 -55 -61 -100 l-42 -83 -309 0 c-170 0 -309 3 -309 8 0 4 8 19 18 32 9 13 29 47 43 75 68 128 82 153 107 197 120 208 229 410 320 593 8 17 21 37 28 45 11 14 77 132 125 225 11 22 36 67 54 100 19 33 43 80 55 104 11 23 29 54 40 68 11 14 20 34 20 44 0 9 11 30 24 46 13 15 32 45 42 65 11 20 40 75 66 121 27 47 62 113 78 148 31 64 55 109 120 224 19 33 42 76 53 95 10 19 28 51 40 72 35 58 107 186 118 210 6 13 26 50 44 83 19 33 41 76 51 95 9 19 20 43 25 52 5 10 9 469 9 1031 0 558 3 1017 7 1020 3 4 127 7 275 7 l268 0 0 -1024z m8330 -1141 l0 -2165 735 0 735 0 0 -215 0 -215 -1745 0 -1745 0 0 215 0 215 733 2 732 3 3 2163 2 2162 275 0 275 0 0 -2165z"/>
 </g>
<g id="layer103" fill="#ffffff" stroke="none">
 <path d="M0 2835 l0 -2835 8000 0 8000 0 0 2835 0 2835 -8000 0 -8000 0 0 -2835z m6640 2421 c208 -31 426 -95 605 -176 84 -38 270 -142 309 -173 l28 -23 -81 -204 c-45 -113 -85 -211 -89 -218 -7 -9 -29 -1 -91 33 -379 210 -810 314 -1171 283 -569 -49 -911 -383 -1075 -1051 -70 -282 -95 -529 -95 -928 0 -492 44 -836 147 -1147 153 -465 421 -720 856 -814 138 -30 455 -32 622 -4 239 39 498 124 663 217 l52 29 15 -32 c9 -18 51 -116 94 -218 l80 -185 -26 -21 c-42 -35 -193 -111 -305 -153 -169 -64 -425 -121 -653 -146 -87 -9 -446 -6 -535 5 -459 58 -802 235 -1069 555 -267 321 -427 747 -507 1355 -23 174 -29 837 -9 1035 31 304 102 639 181 852 58 157 175 377 263 493 87 116 251 280 351 351 244 173 488 257 880 303 77 9 460 -4 560 -18z m7897 0 c352 -53 640 -182 853 -383 127 -119 192 -220 243 -378 38 -115 46 -182 43 -340 -2 -105 -9 -160 -25 -220 -57 -212 -182 -382 -374 -509 -179 -118 -341 -182 -787 -312 -509 -149 -607 -184 -720 -259 -74 -50 -110 -92 -148 -173 -23 -48 -27 -71 -27 -143 0 -78 3 -91 38 -161 175 -354 870 -460 1608 -245 l116 34 58 -216 c32 -119 58 -220 59 -226 2 -20 -353 -100 -579 -130 -142 -20 -486 -26 -635 -13 -398 35 -743 177 -955 392 -160 162 -235 351 -235 590 0 355 174 616 529 791 80 39 211 86 421 149 786 235 974 328 1074 527 68 135 68 266 1 404 -87 180 -302 309 -614 367 -95 18 -154 22 -321 22 -216 1 -307 -9 -498 -51 -117 -25 -296 -83 -396 -127 l-57 -25 -9 25 c-6 14 -10 32 -10 40 0 8 -18 95 -40 194 -22 99 -40 186 -40 194 0 18 167 83 305 119 120 32 312 64 456 76 148 13 543 6 666 -13z m-12377 -1085 l0 -1015 77 -140 c42 -78 164 -301 271 -496 107 -195 209 -382 227 -415 18 -33 63 -116 100 -185 37 -69 154 -282 260 -475 218 -398 227 -413 362 -665 55 -102 121 -224 146 -271 26 -47 47 -89 47 -92 0 -4 -141 -7 -313 -7 l-313 0 -26 53 c-15 28 -52 99 -83 157 -91 169 -148 276 -220 415 -38 72 -164 308 -280 525 -117 217 -281 526 -365 685 -83 160 -155 293 -159 297 -3 4 -98 -167 -210 -380 -113 -213 -252 -475 -309 -582 -168 -313 -356 -668 -485 -915 -65 -126 -125 -236 -131 -243 -9 -9 -82 -12 -323 -10 l-312 3 100 185 c113 209 153 282 466 855 124 226 257 469 295 540 39 72 131 238 203 370 73 132 199 361 279 509 l146 269 0 1024 0 1023 275 -2 275 -3 0 -1014z m8330 -1146 l0 -2165 735 -2 736 -3 0 -220 0 -220 -1751 -3 -1750 -2 0 225 0 225 738 2 737 3 3 2163 2 2162 275 0 275 0 0 -2165z"/>
 </g>

</svg>